<svg id="\u56FE\u5C42_1" xmlns="http://www.w3.org/2000/svg" xmlns:xlink="http://www.w3.org/1999/xlink" x="0px" y="0px"
  width="71px" height="71px" viewBox="0 0 71 71" enable-background="new 0 0 71 71" xml:space="preserve">
  <g id="\u8499\u7248">
    <path id="path-1_1_" fill="#DEC5FF"
      d="M9,26.03v17.132c0,12.755,5.115,17.857,17.902,17.857h15.344 c12.787,0,17.902-5.102,17.902-17.857V27.857C60.148,15.102,55.033,10,42.246,10H26.902C14.115,10,9,15.102,9,27.857">
    </path>
  </g>
  <path fill="#F1DEFF"
    d="M26.902,61.019h15.344c12.787,0,17.902-5.102,17.902-17.857v-5.12l-3.427-3.107 c-2.042-1.852-5.341-1.852-7.383,0l-10.892,9.866c-2.042,1.852-5.341,1.852-7.383,0L30.198,44c-1.859-1.686-4.844-1.852-6.912-0.387 l-12.805,9.074C12.801,58.523,17.978,61.019,26.902,61.019z">
  </path>
  <circle id="Oval\u5907\u4EFD-7" fill-rule="evenodd" clip-rule="evenodd" fill="#FFFFFF" cx="46" cy="24" r="6"></circle>
  <linearGradient id="circle" gradientUnits="userSpaceOnUse" x1="-885.4767" y1="554.9319" x2="-884.4767" y2="554.0258"
    gradientTransform="matrix(24 0 0 -24 21297 13358)">
    <stop offset="0" style="stop-color: rgb(255, 71, 208);"></stop>
    <stop offset="1" style="stop-color: rgb(255, 130, 44);"></stop>
  </linearGradient>
  <circle id="\u692D\u5706\u5F62" fill-rule="evenodd" clip-rule="evenodd" fill="url(#circle)" cx="57" cy="50" r="12">
  </circle>
  <g>
    <path fill="#FFFFFF"
      d="M54.449,48.459l2.015-2.015v5.084c0,0.414,0.336,0.75,0.75,0.75s0.75-0.336,0.75-0.75v-5.084l2.016,2.015 c0.146,0.146,0.338,0.22,0.53,0.22s0.384-0.073,0.53-0.22c0.293-0.293,0.293-0.768,0-1.061l-3.296-3.295 c-0.293-0.293-0.768-0.293-1.061,0l-3.295,3.295c-0.293,0.293-0.293,0.768,0,1.061S54.156,48.752,54.449,48.459z">
    </path>
    <path fill="#FFFFFF"
      d="M61.774,52.084c-0.414,0-0.75,0.336-0.75,0.75c0,1.525-0.173,1.615-1.53,1.615h-4.56 c-1.357,0-1.53-0.09-1.53-1.615c0-0.414-0.336-0.75-0.75-0.75s-0.75,0.336-0.75,0.75c0,2.3,0.793,3.115,3.03,3.115h4.56 c1.869,0,2.73-0.569,2.963-2.097c0.043-0.095,0.067-0.2,0.067-0.312v-0.707C62.524,52.42,62.188,52.084,61.774,52.084z">
    </path>
  </g>
</svg>