<?xml version="1.0" encoding="UTF-8"?>
<svg width="38px" height="38px" viewBox="0 0 38 38" version="1.1" xmlns="http://www.w3.org/2000/svg" xmlns:xlink="http://www.w3.org/1999/xlink">
    <title>photo-people备份 2</title>
    <defs>
        <circle id="path-1" cx="19" cy="19" r="19"></circle>
    </defs>
    <g id="页面-1" stroke="none" stroke-width="1" fill="none" fill-rule="evenodd">
        <g id="物体抹除-优化" transform="translate(-1842.000000, -16.000000)">
            <g id="编组-7" transform="translate(1706.000000, 15.000000)">
                <g id="photo-people备份-2" transform="translate(136.000000, 1.000000)">
                    <mask id="mask-2" fill="white">
                        <use xlink:href="#path-1"></use>
                    </mask>
                    <use id="Mask" fill="#8EA8FF" xlink:href="#path-1"></use>
                    <g id="photo-people" mask="url(#mask-2)" fill-rule="nonzero">
                        <g transform="translate(8.000000, 8.000000)">
                            <path d="M2.00981146,29.3514202 C1.30027621,30.7446729 0.898513386,32.3163432 0.898513386,33.9797608 L0.898513386,35.2638597 L5.43069287,35.2638597 L5.43069287,31.4112004 L2.00981146,29.3514202 Z" id="Shape" fill="#FECAC5"></path>
                            <path d="M21.274523,13.0827828 C21.2608852,13.0827828 21.2442986,13.0824202 21.2243948,13.0813323 L19.8742506,13.995541 C16.5340903,14.185563 7.48410633,13.0780685 6.47380185,9.05823335 C6.47380185,9.05823335 6.24048454,13.187585 3.13732749,13.995541 L1.78755185,13.0813323 C1.77907428,13.0700905 1.77022813,13.0552224 1.76285633,13.0389037 C0.987343514,13.1440685 0.38985954,13.7971784 0.38985954,14.5888158 C0.38985954,15.4540685 1.10197492,16.1539586 1.98143005,16.1539586 C2.01534031,16.1539586 2.04925057,16.1510575 2.08279223,16.1485191 C2.69575698,20.3496729 5.83134992,22.4246839 9.81875377,22.8460685 L9.81875377,23.6808597 C9.86556467,24.0619916 10.5599877,24.3651564 11.4129044,24.3651564 C12.2610294,24.3651564 12.9506608,24.0663432 13.0052121,23.6892004 L13.0052121,22.8467938 C16.9900358,22.423596 20.1215743,20.3478597 20.7341704,16.1492443 C20.7702922,16.1517828 20.8060454,16.1546839 20.8429044,16.1546839 C21.721991,16.1546839 22.4337377,15.4540685 22.4337377,14.5891784 C22.4341063,13.8711564 21.9435134,13.2677279 21.274523,13.0827828 Z" id="Shape_1_" fill="#FECAC5"></path>
                            <path d="M17.3925358,35.2638597 L21.9250839,35.2638597 C21.9250839,35.2638597 21.9250839,35.2638597 21.9250839,33.9797608 C21.9250839,32.3163432 21.5233211,30.7439476 20.8134172,29.3514202 L17.3925358,31.4112004 L17.3925358,35.2638597 L17.3925358,35.2638597 Z" id="Shape_2_" fill="#FECAC5"></path>
                            <path d="M3.13732749,13.9948158 C6.24048454,13.1868597 6.47380185,9.05787072 6.47380185,9.05787072 C7.48447492,13.0773432 16.5337217,14.1848378 19.8757249,13.9948158 L21.2247634,13.080607 C21.245773,13.0820575 21.2623595,13.0824202 21.2752602,13.0824202 C21.3674076,13.0798817 21.3220711,13.0457938 21.2634653,13.0236729 C21.7430006,12.3027498 21.726414,10.8177498 21.6703884,10.089574 C21.3209653,5.53956303 19.1289621,2.83972786 15.1360294,1.58717841 C12.3944589,0.634892696 9.28245569,0.492738849 7.3775839,0.516672915 C7.34551659,0.516310278 7.31418646,0.513771816 7.28175057,0.513771816 C4.39495569,0.513771816 0.0795069759,0.590650937 0.0795069759,0.590650937 C0.0795069759,0.590650937 2.2383371,2.82377182 2.0050198,7.26426632 C1.96042044,8.11682676 1.45766403,12.416618 1.76359351,13.0381784 C1.7713339,13.0552224 1.77944287,13.0697279 1.78828903,13.080607 L3.13732749,13.9948158 Z" id="Shape_3_" fill="#050306"></path>
                            <path d="M8.9481448,19.5181454 C8.9481448,19.5181454 11.4715102,21.2029586 13.8750839,19.5181454 L8.9481448,19.5181454 Z" id="Shape_4_" fill="#FE999F"></path>
                            <path d="M11.413273,25.0121015 C10.2341544,25.0121015 9.24375377,24.5196399 8.95293646,23.8520246 C5.88295249,24.5714971 3.3308371,26.6037169 1.94715121,29.3144312 L1.99801659,29.3452553 L2.00944287,29.3525081 L5.43032428,31.4126509 L5.43032428,35.264585 L17.3925358,35.264585 L17.3925358,31.4122883 L20.8119429,29.3517828 L20.8230006,29.3448927 L20.8753403,29.3140685 C19.4916544,26.602629 16.9402762,24.5714971 13.8706608,23.8523872 C13.5805807,24.5200026 12.5909172,25.0121015 11.413273,25.0121015 Z" id="Shape_5_" fill="#FFFFFF"></path>
                            <path d="M11.413273,24.3651564 C10.5481929,24.3651564 9.84344928,24.0583652 9.79553262,23.6725191 C9.79479544,23.6641784 9.79147813,23.6554751 9.79074095,23.6471345 C9.78852941,23.6478597 9.78484351,23.6489476 9.78263198,23.6489476 C9.48591723,23.6939147 9.19325698,23.751574 8.90538839,23.8201125 C8.9083371,23.8270026 8.91239159,23.8328048 8.91460313,23.8407828 C8.91534031,23.842596 8.91718326,23.8433213 8.91755185,23.8458597 C9.21168646,24.5232663 10.2164621,25.0229806 11.4125358,25.0229806 C12.6078724,25.0229806 13.6119108,24.5232663 13.9078884,23.8473103 C13.9078884,23.8458597 13.9086256,23.8440465 13.9086256,23.8433213 C13.9130486,23.8357059 13.916366,23.8280905 13.9200518,23.8204751 C13.6284974,23.7512114 13.3339942,23.6921015 13.0335935,23.6478597 C13.0335935,23.6558378 13.0310134,23.6652663 13.0302762,23.6732443 C13.0302762,23.6757828 13.0280647,23.677596 13.0280647,23.6801345 C12.972039,24.0612663 12.2728243,24.3651564 11.413273,24.3651564 Z" id="Shape_6_" fill="#FFFFFF"></path>
                        </g>
                    </g>
                </g>
            </g>
        </g>
    </g>
</svg>